<?xml version="1.0" encoding="utf-8"?>
<!-- Generator: Adobe Illustrator 16.0.0, SVG Export Plug-In . SVG Version: 6.00 Build 0)  -->
<!DOCTYPE svg PUBLIC "-//W3C//DTD SVG 1.1//EN" "http://www.w3.org/Graphics/SVG/1.1/DTD/svg11.dtd">
<svg version="1.1" id="Layer_1" xmlns="http://www.w3.org/2000/svg" xmlns:xlink="http://www.w3.org/1999/xlink" x="0px" y="0px"
	 width="230px" height="204px" viewBox="0 0 230 204" enable-background="new 0 0 230 204" xml:space="preserve">
<path fill-rule="evenodd" clip-rule="evenodd" fill="#A7A9AC" d="M227.8,37.7c0,44.1,0,88.1,0,132.2c-0.7,9.1-15.8,6.6-28.6,6.6
	c-56.5,0-112.5,0-169.6,0c-11.8,0-26.4,2.1-27.3-6.6c0-44.4,0-88.7,0-133.1c2.2-12.2,18.7-9.3,33.5-9.3c55.5,0,111,0,166.6,0
	C215.8,27.5,229,25.7,227.8,37.7z M113,113.8c33.5-24.1,68.3-50.1,101.1-74.5c2.1-1.6,6-3,5.3-4.8C149.8,34.7,78.8,33.8,10,34.9
	C44.3,61.2,78.9,87.2,113,113.8z M8.4,160.2c6.2-4.2,11.9-9.6,17.7-14.9C43.8,129,61.8,112.6,78.7,96C54.9,78.7,32.5,60.2,8.4,43.4
	C8.4,82.3,8.4,121.2,8.4,160.2z M221.1,43.4C197.9,61,174,77.9,151.3,96c20.1,17.8,42.1,36.8,61.9,54.5c2.9,2.6,5.4,6.8,8.4,6.5
	C221.2,119.2,222.2,80.3,221.1,43.4z M114,122.9c-9.6-6.8-18.3-14.6-28.4-20.9c-23.9,22-48.3,43.6-71.7,66.1c68.4,0,136.8,0,205.3,0
	c-23.6-22-49.8-45.5-75.4-67C133.7,108.2,124.3,116,114,122.9z"/>
</svg>
